<svg  id="Capa_1" enable-background="new 0 0 497.05 497.05" height="15" viewBox="0 0 497.05 497.05" width="15" xmlns="http://www.w3.org/2000/svg"><path style="fill: #f1592a" d="m236.4 319.382-145.494 145.493c-16.201 16.201-42.563 16.201-58.765 0s-16.201-42.563 0-58.765l53.409-53.408c9.122-9.122-5.018-23.26-14.142-14.143l-53.409 53.408c-23.999 24-23.999 63.05 0 87.05 12 12 27.763 17.999 43.525 17.999s31.525-5.999 43.525-17.999l152.564-152.564c3.905-3.905 3.905-10.237 0-14.143l-10.481-10.481 41.005-41.006c54.014 30.85 124.069 21.449 168.017-22.498 26.372-26.373 40.896-61.437 40.896-98.731 0-37.296-14.523-72.359-40.896-98.731-54.44-54.439-143.022-54.439-197.461 0-43.95 43.95-53.539 114.018-22.534 168.053l-40.97 40.97-10.482-10.482c-3.905-3.904-10.237-3.904-14.143 0l-41.509 41.509c-9.121 9.122 5.021 23.262 14.143 14.143l34.438-34.438zm-3.41-31.695-23.659-23.659 38.233-38.233c6.921 8.784 14.875 16.739 23.669 23.648zm209.022-63.504c-46.643 46.643-122.535 46.643-169.178 0-22.595-22.595-35.038-52.636-35.038-84.589 0-31.954 12.443-61.995 35.038-84.589 23.321-23.321 53.955-34.981 84.589-34.981s61.268 11.66 84.589 34.981c22.594 22.594 35.038 52.635 35.038 84.589 0 31.953-12.443 61.994-35.038 84.589z"/><path style="fill: #f1592a" d="m424.28 72.738c-28.187-28.187-71.318-35.667-107.328-18.618-11.605 5.494-3.064 23.578 8.559 18.076 28.392-13.444 62.401-7.542 84.626 14.685 29.067 29.066 29.067 76.361 0 105.428s-76.361 29.066-105.428 0c-17.125-17.124-24.876-41.616-20.735-65.516 2.192-12.652-17.511-16.084-19.706-3.414-5.25 30.299 4.581 61.354 26.299 83.072 18.432 18.432 42.644 27.647 66.856 27.647s48.424-9.216 66.856-27.647c36.865-36.866 36.865-96.848.001-133.713z"/><path style="fill: #f1592a" d="m282.058 92.617c2.096 5.028 8.023 7.488 13.06 5.4 5.036-2.088 7.492-8.012 5.41-13.051-2.078-5.032-8.031-7.498-13.06-5.41-5.046 2.095-7.477 8.014-5.41 13.061z"/><path style="fill: #f1592a" d="m98.328 320.376c2.094 5.03 8.018 7.498 13.06 5.41 5.034-2.085 7.488-8.029 5.41-13.06-2.081-5.038-8.03-7.488-13.06-5.41-5.051 2.087-7.478 8.019-5.41 13.06z"/></svg>